{"title":"R I P D 2013 WEBRip V2 X264 AAC - BiTo","uid":8840918,"size":1031374878,"categoryP":"video","categoryS":"movies","magnet":"?xt=urn:btih:c478e9dfe48e7f07ddf8403227a2423578f67e92&amp;dn=R+I+P+D+2013+WEBRip+V2+X264+AAC+-+BiTo&amp;tr=udp%3A%2F%2Ftracker.openbittorrent.com%3A80&amp;tr=udp%3A%2F%2Fopen.demonii.com%3A1337&amp;tr=udp%3A%2F%2Ftracker.coppersurfer.tk%3A6969&amp;tr=udp%3A%2F%2Fexodus.desync.com%3A6969","seeders":1,"leechers":0,"uploader":"TeX","files":2,"time":1377241237,"description":"[img]http://lookpic.com/O/i2/1517/9eLgxZDO.jpeg[/img]\n\nSource: Chinese\nSample: no\nAudio: AAC @ 2 Ch English\nSubs: Chinese HC\nContainer: MKv\nCodec: X264\n &lt;a href=&quot;\nhttp://www.imdb.com/title/tt0790736/&quot; rel=&quot;nofollow&quot; target=&quot;_NEW&quot;&gt;\nhttp://www.imdb.com/title/tt0790736/&lt;/a&gt;\n\n\nVideo\nID : 1\nFormat : AVC\nFormat/Info : Advanced Video Codec\nFormat profile : &lt;a class=&quot;__cf_email__&quot; href=&quot;/cdn-cgi/l/email-protection&quot; data-cfemail=&quot;93def2fafdd3dfa0bda3&quot;&gt;[email&amp;#160;protected]&lt;/a&gt;&lt;script cf-hash='f9e31' type=&quot;text/javascript&quot;&gt;\n/* &lt;![CDATA[ */!function(){try{var t=&quot;currentScript&quot;in document?document.currentScript:function(){for(var t=document.getElementsByTagName(&quot;script&quot;),e=t.length;e--;)if(t[e].getAttribute(&quot;cf-hash&quot;))return t[e]}();if(t&amp;&amp;t.previousSibling){var e,r,n,i,c=t.previousSibling,a=c.getAttribute(&quot;data-cfemail&quot;);if(a){for(e=&quot;&quot;,r=parseInt(a.substr(0,2),16),n=2;a.length-n;n+=2)i=parseInt(a.substr(n,2),16)^r,e+=String.fromCharCode(i);e=document.createTextNode(e),c.parentNode.replaceChild(e,c)}}}catch(u){}}();/* ]]&gt; */&lt;/script&gt;\nFormat settings, CABAC : Yes\nFormat settings, ReFrames : 4 frames\nCodec ID : V_MPEG4/ISO/AVC\nDuration : 1h 35mn\nBit rate : 1 200 Kbps\nWidth : 720 pixels\nHeight : 304 pixels\nDisplay aspect ratio : 2.40:1\nOriginal display aspect ratio : 2.40:1\nFrame rate mode : Constant\nFrame rate : 29.970 fps\nColor space : YUV\nChroma subsampling : 4:2:0\nBit depth : 8 bits\nScan type : Progressive\nBits/(Pixel*Frame) : 0.183\nStream size : 810 MiB (82%)\nWriting library : x264 core 125\n\n\nAudio\nID : 2\nFormat : AC-3\nFormat/Info : Audio Coding 3\nMode extension : CM (complete main)\nFormat settings, Endianness : Big\nCodec ID : A_AC3\nDuration : 1h 35mn\nBit rate mode : Constant\nBit rate : 224 Kbps\nChannel(s) : 2 channels\nChannel positions : Front: L R\nSampling rate : 44.1 KHz\nBit depth : 16 bits\nCompression mode : Lossy\nStream size : 154 MiB (16%)\nDefault : Yes\nForced : No\n\n\n[img]http://lookpic.com/O/i2/1651/tHNqGgY8.png[/img]\n[img]http://lookpic.com/O/i2/499/nhwVICH.png[/img]\n[img]http://lookpic.com/O/i2/206/JpWd9QeN.png[/img]","torrent":{"xt":"urn:btih:c478e9dfe48e7f07ddf8403227a2423578f67e92","amp;dn":"R+I+P+D+2013+WEBRip+V2+X264+AAC+-+BiTo","amp;tr":["udp%3A%2F%2Ftracker.openbittorrent.com%3A80","udp%3A%2F%2Fopen.demonii.com%3A1337","udp%3A%2F%2Ftracker.coppersurfer.tk%3A6969","udp%3A%2F%2Fexodus.desync.com%3A6969"],"infoHash":"c478e9dfe48e7f07ddf8403227a2423578f67e92","infoHashBuffer":{"type":"Buffer","data":[196,120,233,223,228,142,127,7,221,248,64,50,39,162,66,53,120,246,126,146]},"announce":[],"urlList":[]}}